<?xml version="1.0" encoding="UTF-8"?>
<svg width="18px" height="16px" viewBox="0 0 18 16" version="1.1" xmlns="http://www.w3.org/2000/svg" xmlns:xlink="http://www.w3.org/1999/xlink">
    <!-- Generator: Sketch 54.1 (76490) - https://sketchapp.com -->
    <title>alert</title>
    <desc>Created with Sketch.</desc>
    <g id="Page-1" stroke="none" stroke-width="1" fill="none" fill-rule="evenodd">
        <g id="alert" transform="translate(0.000000, -1.000000)" fill-rule="nonzero">
            <rect id="Canvas" fill-opacity="0" fill="#FF13DC" x="0" y="0" width="18" height="18"></rect>
            <path d="M8.5635,1.2895 L0.2,16.256 C0.113465138,16.4107773 0.115382036,16.5998098 0.205037842,16.7528004 C0.294693648,16.905791 0.458674656,16.9998504 0.636,17 L17.364,17 C17.5414146,17.0000277 17.7055581,16.9060386 17.7953356,16.7530159 C17.885113,16.5999932 17.8870783,16.4108552 17.8005,16.256 L9.4365,1.2895 C9.34814562,1.13134914 9.18115791,1.0333601 9,1.0333601 C8.81884209,1.0333601 8.65185438,1.13134914 8.5635,1.2895 Z M10,14.75 C10,14.8880712 9.88807119,15 9.75,15 L8.25,15 C8.11192881,15 8,14.8880712 8,14.75 L8,13.25 C8,13.1119288 8.11192881,13 8.25,13 L9.75,13 C9.88807119,13 10,13.1119288 10,13.25 L10,14.75 Z M10,11.75 C10,11.8880712 9.88807119,12 9.75,12 L8.25,12 C8.11192881,12 8,11.8880712 8,11.75 L8,5.75 C8,5.61192881 8.11192881,5.5 8.25,5.5 L9.75,5.5 C9.88807119,5.5 10,5.61192881 10,5.75 L10,11.75 Z" id="Shape" fill="#F15703"></path>
        </g>
    </g>
</svg>