<svg height='300px' width='300px'  fill="#000000" xmlns="http://www.w3.org/2000/svg" xmlns:xlink="http://www.w3.org/1999/xlink" version="1.1" x="0px" y="0px" viewBox="0 0 100 100" enable-background="new 0 0 100 100" xml:space="preserve"><g><g><line fill="none" stroke="#000000" stroke-width="3" stroke-linecap="round" stroke-miterlimit="10" x1="54.684" y1="91.537" x2="73.591" y2="91.537"></line><line fill="none" stroke="#000000" stroke-width="3" stroke-linecap="round" stroke-miterlimit="10" x1="26.409" y1="91.537" x2="45.315" y2="91.537"></line><circle cx="49.999" cy="91.537" r="4.684"></circle><line fill="none" stroke="#000000" stroke-width="3" stroke-linecap="round" stroke-miterlimit="10" x1="50" y1="71.352" x2="50" y2="86.852"></line></g><path d="M82.353,3.777H17.647c-5.025,0-9.1,4.073-9.1,9.099s4.074,9.099,9.1,9.099h64.705c5.025,0,9.1-4.073,9.1-9.099   S87.378,3.777,82.353,3.777z M17.683,17.109c-2.419,0-4.381-1.962-4.381-4.381s1.962-4.381,4.381-4.381   c2.42,0,4.382,1.962,4.382,4.381S20.103,17.109,17.683,17.109z"></path><path d="M82.353,28.777H17.647c-5.025,0-9.1,4.073-9.1,9.099s4.074,9.099,9.1,9.099h64.705c5.025,0,9.1-4.073,9.1-9.099   S87.378,28.777,82.353,28.777z M17.683,42.109c-2.419,0-4.381-1.963-4.381-4.382c0-2.419,1.962-4.381,4.381-4.381   c2.42,0,4.382,1.962,4.382,4.381C22.064,40.146,20.103,42.109,17.683,42.109z"></path><path d="M82.353,53.777H17.647c-5.025,0-9.1,4.074-9.1,9.1s4.074,9.1,9.1,9.1h64.705c5.025,0,9.1-4.074,9.1-9.1   S87.378,53.777,82.353,53.777z M17.683,67.109c-2.419,0-4.381-1.963-4.381-4.381c0-2.42,1.962-4.383,4.381-4.383   c2.42,0,4.382,1.963,4.382,4.383C22.064,65.146,20.103,67.109,17.683,67.109z"></path></g></svg>